<svg width="47" height="60" viewBox="0 0 47 60" fill="none" xmlns="http://www.w3.org/2000/svg">
<path d="M31.7833 42.425C40.5917 44.0875 46.8333 48.3458 46.8333 53.3333V59.1666H0.166672V53.3333C0.166672 48.3458 6.40834 44.0875 15.2167 42.425L23.5 56.25L31.7833 42.425ZM11.8333 18.3333H35.1667V24.1666C35.1667 27.2608 33.9375 30.2283 31.7496 32.4162C29.5617 34.6041 26.5942 35.8333 23.5 35.8333C20.4058 35.8333 17.4384 34.6041 15.2504 32.4162C13.0625 30.2283 11.8333 27.2608 11.8333 24.1666V18.3333ZM11.8333 15.4166L13.0292 3.45831C13.175 1.97081 14.4292 0.833313 15.9458 0.833313H31.0833C32.5708 0.833313 33.825 1.97081 33.9708 3.45831L35.1667 15.4166H11.8333ZM23.5 3.74998H20.5833V6.66665H17.6667V9.58331H20.5833V12.5H23.5V9.58331H26.4167V6.66665H23.5V3.74998Z" fill="#2A5C4E"/>
</svg>
