<svg width="47" height="60" viewBox="0 0 47 60" fill="none" xmlns="http://www.w3.org/2000/svg">
<path d="M11.8333 12.5C11.8333 6.05418 17.0542 0.833344 23.5 0.833344C29.9458 0.833344 35.1667 6.05418 35.1667 12.5C35.1667 18.9458 29.9458 24.1667 23.5 24.1667C17.0542 24.1667 11.8333 18.9458 11.8333 12.5ZM38.0833 59.1667H41C44.2083 59.1667 46.8333 56.5417 46.8333 53.3333V39.3917C46.8333 36.125 45.0542 33.1208 42.1375 31.6333C40.8833 30.9917 39.5417 30.3792 38.0833 29.825V59.1667ZM24.4917 44.5833L32.25 28.0458C29.5375 27.4333 26.6208 27.0833 23.5 27.0833C16.1208 27.0833 9.76251 29.125 4.86251 31.6333C1.94584 33.1208 0.166672 36.125 0.166672 39.3917V59.1667H6.99167C6.35001 57.8542 6.00001 56.3667 6.00001 54.7917C6.00001 49.1625 10.5792 44.5833 16.2083 44.5833H24.4917ZM17.6667 59.1667L21.7792 50.4167H16.2083C13.7875 50.4167 11.8333 52.3708 11.8333 54.7917C11.8333 57.2125 13.7875 59.1667 16.2083 59.1667H17.6667Z" fill="#2A5C4E"/>
</svg>
